<?xml version="1.0" encoding="UTF-8" standalone="no"?><!DOCTYPE svg PUBLIC "-//W3C//DTD SVG 1.1//EN" "http://www.w3.org/Graphics/SVG/1.1/DTD/svg11.dtd"><svg width="100%" height="100%" viewBox="0 0 600 600" version="1.1" xmlns="http://www.w3.org/2000/svg" xmlns:xlink="http://www.w3.org/1999/xlink" xml:space="preserve" xmlns:serif="http://www.serif.com/" style="fill-rule:evenodd;clip-rule:evenodd;"><g id="svga-group-wrapper"><g id="svga-group-subwrapper"><g id="svga-group-hair-back"></g><g id="svga-group-humanbody-single"></g><g id="svga-group-chinshadow-single"></g><g id="svga-group-clothes-single"></g><g id="svga-group-head"><g id="svga-group-ears-left"><path id="SvgjsPath3082" d="M165.406,556.783c-2.466,-6.342 -20.609,-15.305 -28.585,-13.89c-9.022,1.599 -12.337,11.108 -11.141,18.154c2.812,16.542 10.19,23.508 13.505,36.429c2.794,10.896 8.754,17.167 11.699,21.798c3.621,5.681 6.961,18.719 7.709,20.621c1.18,3.009 5.362,10.31 12.755,9.935c8.499,-0.438 19.239,-17.054 19.415,-20.744c0.974,-20.018 -18.944,-55.794 -25.357,-72.303Z" style="fill:#f0c7b1;fill-rule:nonzero;stroke:#c27b55;stroke-width:3.82px;"/><path id="SvgjsPath3083" d="M167.28,624.244c0,-0 1.094,-2.732 -0.239,-5.157c-1.714,-3.118 -6.179,-8.843 -7.194,-12.268c-0.829,-2.8 -0.408,-8.784 -0.543,-11.712c-0.24,-5.176 -3.805,-8.721 -4.914,-11.692c-7.43,-19.872 -17.319,-32.188 -22.95,-34.746c-4.164,10.172 -0.864,17.613 4.947,33.265c-3.506,-21.272 -0.137,-27.923 -0.137,-27.923c-0,0 10.245,8.836 15.302,28.489c0.916,3.547 -2.833,10.95 -2.116,14.548c0.897,4.518 10.669,13.262 13.405,16.919c2.134,2.848 4.439,10.277 4.439,10.277Z" style="fill:#c27b55;fill-rule:nonzero;"/></g><g id="svga-group-ears-right"><path id="SvgjsPath3084" d="M433.926,556.783c2.466,-6.342 20.609,-15.305 28.588,-13.89c9.025,1.599 12.337,11.108 11.141,18.154c-2.815,16.542 -10.19,23.508 -13.507,36.429c-2.795,10.896 -8.757,17.167 -11.7,21.798c-3.621,5.681 -6.961,18.719 -7.708,20.621c-1.181,3.009 -5.365,10.31 -12.755,9.935c-8.497,-0.438 -19.24,-17.054 -19.413,-20.744c-0.98,-20.018 18.943,-55.794 25.354,-72.303Z" style="fill:#f0c7b1;fill-rule:nonzero;stroke:#c27b55;stroke-width:3.82px;"/><path id="SvgjsPath3085" d="M432.052,624.244c-0,-0 -1.097,-2.732 0.24,-5.157c1.713,-3.118 6.181,-8.843 7.191,-12.268c0.826,-2.8 0.408,-8.784 0.548,-11.712c0.24,-5.176 3.799,-8.721 4.911,-11.692c7.431,-19.872 17.322,-32.188 22.95,-34.746c4.164,10.172 0.862,17.613 -4.944,33.265c3.506,-21.272 0.135,-27.923 0.135,-27.923c-0,0 -10.246,8.836 -15.305,28.489c-0.911,3.547 2.833,10.95 2.116,14.548c-0.897,4.518 -10.669,13.262 -13.403,16.919c-2.134,2.848 -4.439,10.277 -4.439,10.277Z" style="fill:#c27b55;fill-rule:nonzero;"/></g><g id="svga-group-faceshape-wrap"><g id="svga-group-faceshape-single"><path id="SvgjsPath3054" d="M300.005,351.157c-85.726,0.137 -155.346,70.999 -155.213,158.306c0.02,13.867 1.795,27.308 5.105,40.119l0.003,0c0.03,0.138 29.432,99.027 35.751,131.506c3.524,18.115 24.979,34.438 44.025,47.759c17.766,12.434 26.849,30.307 70.329,30.307c43.48,-0 52.563,-17.873 70.329,-30.307c19.044,-13.324 40.502,-29.644 44.026,-47.759c6.321,-32.479 35.723,-131.371 35.751,-131.506l0.005,0c3.31,-12.809 5.085,-26.252 5.105,-40.119c0.133,-87.307 -69.49,-158.169 -155.216,-158.306Z" style="fill:#f0c7b1;fill-rule:nonzero;"/><path id="SvgjsPath3055" d="M419.269,408.197c19.069,26.559 30.388,59.647 30.34,95.526c-0.023,13.867 -1.732,27.308 -4.922,40.119l-0.005,0c-0.028,0.138 -28.366,99.024 -34.456,131.509c-3.404,18.115 -24.151,34.437 -42.503,47.758c-17.131,12.432 -25.808,30.31 -67.72,30.31c-41.907,-0 -50.597,-17.878 -67.721,-30.31c-18.352,-13.323 -39.104,-29.643 -42.495,-47.758c-6.092,-32.482 -34.43,-131.371 -34.458,-131.509c-3.193,-12.809 -4.901,-26.252 -4.924,-40.119c-0.054,-35.868 11.258,-68.944 30.316,-95.498c-22.47,27.449 -35.988,62.738 -35.929,101.238c0.02,13.867 1.795,27.308 5.105,40.119l0.003,0c0.03,0.138 29.432,99.027 35.751,131.506c3.524,18.115 24.979,34.438 44.025,47.759c17.766,12.434 26.849,30.307 70.329,30.307c43.48,-0 52.563,-17.873 70.329,-30.307c19.044,-13.324 40.502,-29.644 44.026,-47.759c6.321,-32.479 35.723,-131.371 35.751,-131.506l0.005,0c3.31,-12.809 5.085,-26.252 5.105,-40.119c0.059,-38.51 -13.469,-73.812 -35.952,-101.266Z" style="fill:#e8b9a0;fill-rule:nonzero;"/><path id="SvgjsPath3056" d="M300.005,351.157c-85.726,0.137 -155.346,70.999 -155.213,158.306c0.02,13.867 1.795,27.308 5.105,40.119l0.003,0c0.03,0.138 29.432,99.027 35.751,131.506c3.524,18.115 24.979,34.438 44.025,47.759c17.766,12.434 26.849,30.307 70.329,30.307c43.48,-0 52.563,-17.873 70.329,-30.307c19.044,-13.324 40.502,-29.644 44.026,-47.759c6.321,-32.479 35.723,-131.371 35.751,-131.506l0.005,0c3.31,-12.809 5.085,-26.252 5.105,-40.119c0.133,-87.307 -69.49,-158.169 -155.216,-158.306Z" style="fill:none;fill-rule:nonzero;stroke:#c27b55;stroke-width:3.82px;"/></g></g><g id="svga-group-mouth-single"></g><g id="svga-group-eyes-left"><g id="svga-group-eyesback-left"><path id="SvgjsPath3696" d="M240.667,548.822c11.697,1.732 20.224,8.895 27.471,20.247c0.01,0.013 0.033,0.01 0.046,0.021c0.018,0.068 0.053,0.135 0.066,0.204c0.65,2.567 -2.081,4.638 -5.495,6.216c-12.166,1.553 -23.865,3.797 -36.195,2.219c-24.686,-3.165 -25.13,-14.048 -26.331,-16.904c-0.643,-2.808 -0.829,-3.613 -0.793,-6.306c5.947,-3.483 10.31,-4.2 14.928,-5.113c5.416,-1.066 17.47,-1.897 26.303,-0.584Z" style="fill:url(#_Radial1);fill-rule:nonzero;"/></g><g id="svga-group-eyesiriswrapper-left"><g id="svga-group-eyesiriscontrol-left"><g id="svga-group-eyesiris-left"><path id="SvgjsPath3836" d="M249.638,563.146c-0,8.448 -6.852,15.297 -15.3,15.297c-8.448,-0 -15.3,-6.849 -15.3,-15.297c-0,-8.456 6.852,-15.303 15.3,-15.303c8.448,-0 15.3,6.849 15.3,15.303Z" style="fill:#4e60a3;fill-rule:nonzero;"/><path id="SvgjsPath3837" d="M225.443,570.298c2.232,-0.183 0.255,-0.78 0.255,-0.78c-1.104,-0.594 -3.182,-1.51 -3.182,-2.349c-0,-2.629 3.606,-3.312 -0.087,-4.347c-3.835,-3.519 2.976,-3.448 2.925,-3.565c-2.486,-6.059 0.763,-2.731 2.129,-4.521c5.07,-6.628 1.413,0.68 4.165,-0c0.997,-0.245 -1.989,-3.904 0.086,-3.392c1.375,0.337 1.688,1.479 1.688,1.479c1.002,-0.196 2.571,-1.739 2.571,-1.739c1.91,0.576 3.251,3.29 2.659,2.782c0.939,-0.115 2.255,-0.563 3.28,-0.869c-0,-0 0.178,-0.61 0.354,-0.085c2.338,6.786 8.374,6.299 1.426,8.262c-0,0 -0.449,0 0.974,1.127c6.91,5.519 -5.36,3.813 1.15,6.35c0.265,-0.265 -3.902,2.461 -3.902,3.216c0,1.277 -2.657,4.635 -4.962,3.315c-1.285,-0.735 -1.482,1.53 -2.236,0.484c-1.482,-2.048 -4.443,-0.089 -3.349,-1.971c1.617,-1.329 -1.667,0.52 -2.305,0.52c-2.111,0 2.762,-7.097 9.93,-1.823c2.096,1.535 -2.203,-3.654 1.594,-3.654c0.38,0.125 0.265,-1.329 0.265,-1.739c-1.974,-0.385 3.544,-0.008 3.544,-3.219c0.35,0.069 1.298,-0.892 -4.169,0c0,0 -0.173,-1.912 -0.087,-2.259c0.281,-1.117 3.096,-0.76 2.306,-1.912c-0,-0.003 -2.038,-4.091 -2.038,-4.091c-6.561,-1.055 -2.81,-1.713 -6.913,-0.869c-0.194,0.964 -8.785,5.059 -8.512,6.959c0.255,1.79 5.393,2.392 0.531,5.564c7.288,13.954 -5.381,-0.319 -0.09,3.126Z" style="fill:#6777b2;fill-rule:nonzero;"/><path id="SvgjsPath3838" d="M234.338,549.755l0.436,11.203l4.684,-10.183l-3.883,10.514l8.228,-7.612l-7.611,8.227l10.516,-3.884l-10.18,4.689l11.2,0.434l-11.2,0.433l10.18,4.69l-10.516,-3.884l7.611,8.227l-8.228,-7.612l3.883,10.513l-4.684,-10.182l-0.436,11.202l-0.436,-11.202l-4.687,10.182l3.881,-10.513l-8.226,7.612l7.611,-8.227l-10.516,3.884l10.18,-4.69l-11.195,-0.433l11.195,-0.434l-10.18,-4.689l10.516,3.884l-7.611,-8.227l8.226,7.612l-3.881,-10.514l4.687,10.183l0.436,-11.203Z" style="fill:#253984;fill-rule:nonzero;"/><path id="SvgjsPath3839" d="M236.368,553.116l-1.375,8.454l5.052,-6.913l-4.504,7.285l7.319,-4.457l-6.949,5.008l8.464,-1.314l-8.334,1.967l8.328,2.024l-8.458,-1.372l6.916,5.054l-7.288,-4.5l4.457,7.316l-5.008,-6.949l1.316,8.463l-1.966,-8.338l-2.027,8.323l1.374,-8.453l-5.059,6.913l4.508,-7.286l-7.316,4.458l6.949,-5.008l-8.463,1.315l8.335,-1.966l-8.323,-2.022l8.454,1.37l-6.916,-5.054l7.288,4.5l-4.455,-7.316l5.008,6.949l-1.316,-8.461l1.969,8.339l2.02,-8.329Z" style="fill:#152975;fill-rule:nonzero;"/><path id="SvgjsPath3840" d="M240.075,563.146c0,3.169 -2.57,5.737 -5.737,5.737c-3.167,0 -5.738,-2.568 -5.738,-5.737c0,-3.17 2.571,-5.738 5.738,-5.738c3.167,0 5.737,2.568 5.737,5.738Z" style="fill-opacity:0.9;fill-rule:nonzero;"/><path id="SvgjsPath3841" d="M228.312,574.139c-0.844,0.846 -2.512,0.548 -3.723,-0.666c-1.214,-1.211 -1.512,-2.879 -0.665,-3.726c0.844,-0.844 2.511,-0.545 3.723,0.666c1.213,1.214 1.512,2.879 0.665,3.726Z" style="fill:#fff;fill-opacity:0.7;fill-rule:nonzero;"/><path id="SvgjsPath3842" d="M246.593,560.131c-1.265,1.265 -4.327,0.255 -6.839,-2.259c-2.514,-2.514 -3.524,-5.577 -2.259,-6.842c1.264,-1.264 4.327,-0.255 6.839,2.26c2.514,2.517 3.524,5.577 2.259,6.841Z" style="fill:#fff;fill-opacity:0.9;fill-rule:nonzero;"/></g></g></g><g id="svga-group-eyesfront-left"><path id="SvgjsPath3721" d="M185.536,562.082c8.221,28.853 19.061,59.448 45.097,60.356c26.035,0.908 56.444,-18.459 56.839,-56.707c0.441,-42.756 -26.709,-59.621 -52.744,-60.529c-26.036,-0.908 -61.445,13.864 -49.192,56.88Zm14.696,-1.257c-0.643,-2.808 -0.829,-3.613 -0.794,-6.306c5.169,-3.086 10.302,-3.945 14.921,-4.858c5.413,-1.066 17.475,-2.155 26.308,-0.839c11.697,1.732 20.224,8.895 27.471,20.247c0.01,0.013 0.033,0.01 0.046,0.021c0.018,0.068 0.053,0.135 0.066,0.204c0.65,2.567 -2.081,4.638 -5.495,6.216c-12.166,1.553 -23.865,3.797 -36.195,2.219c-24.686,-3.165 -25.13,-14.048 -26.328,-16.904Z" style="fill:#f0c7b1;fill-rule:nonzero;"/><path id="SvgjsPath3722" d="M234.274,591.632c23.603,3.572 45.51,-7.676 48.924,-25.141c3.417,-17.465 -12.933,-34.519 -36.539,-38.097c-23.608,-3.567 -45.504,7.681 -48.921,25.148c-3.417,17.463 12.928,34.507 36.536,38.09Zm-34.838,-37.113c5.419,-2.91 10.302,-3.945 14.92,-4.858c5.414,-1.066 17.475,-2.155 26.308,-0.839c11.697,1.732 20.224,8.895 27.471,20.247c0.011,0.013 0.034,0.01 0.046,0.021c0.018,0.068 0.054,0.135 0.067,0.204c0.65,2.567 -2.081,4.638 -5.496,6.216c-12.166,1.553 -23.865,3.797 -36.194,2.219c-24.687,-3.165 -25.131,-14.048 -26.332,-16.904c-0.64,-2.808 -0.823,-3.616 -0.79,-6.306Z" style="fill:url(#_Radial2);fill-rule:nonzero;"/><path id="SvgjsPath3727" d="M200.232,560.825c-0.643,-2.808 -0.829,-3.613 -0.794,-6.306c5.335,-2.996 10.302,-3.945 14.921,-4.858c5.413,-1.066 17.475,-2.155 26.308,-0.839c11.697,1.732 20.224,8.895 27.471,20.247c0.01,0.013 0.033,0.01 0.046,0.021c0.018,0.068 0.053,0.135 0.066,0.204c0.65,2.567 -2.081,4.638 -5.495,6.216c-12.166,1.553 -23.865,3.797 -36.195,2.219c-24.686,-3.165 -25.13,-14.048 -26.328,-16.904Z" style="fill:url(#_Radial3);fill-rule:nonzero;"/><path id="SvgjsPath3731" d="M239.634,542.103c8.4,1.374 16.588,5.238 24.174,10.06c1.624,1.03 3.483,2.205 6.429,3.7c-2.112,-0.48 -4.065,-1.574 -5.888,-2.578c1.876,1.78 3.626,3.899 5.054,5.951c-6.429,-8.055 -18.608,-14.121 -28.968,-16.19c-9.95,-1.986 -28.022,-0.673 -41.44,5.208c12.286,-6.913 30.21,-7.854 40.639,-6.151Z" style="fill:#c27b55;fill-rule:nonzero;"/><path id="SvgjsPath3732" d="M268.146,568.952c-7.26,-11.067 -15.792,-18.059 -27.492,-19.755c-12.324,-1.798 -28.741,-0.564 -38.337,4.7c-0.785,0.431 -4.097,3.185 -3.572,0.298c2.229,-2.976 11.021,-6.434 15.282,-7.466c47.8,-11.585 56.857,26.244 54.119,22.223Zm-68.498,-8.762c-1.826,5.261 2.195,16.968 25.869,19.133c16.818,1.535 40.206,-4.463 37.317,-4.113c-12.186,1.502 -23.906,3.695 -36.258,2.139c-28.005,-3.519 -24.832,-16.695 -26.928,-17.159Z" style="fill-rule:nonzero;"/></g></g><g id="svga-group-eyes-right"><g id="svga-group-eyesback-right"><path id="SvgjsPath3704" d="M358.311,548.822c-11.694,1.732 -20.224,8.895 -27.471,20.247c-0.01,0.013 -0.031,0.01 -0.046,0.021c-0.015,0.068 -0.051,0.135 -0.064,0.204c-0.653,2.567 2.079,4.638 5.493,6.216c12.166,1.553 23.865,3.797 36.195,2.219c24.686,-3.165 25.13,-14.048 26.328,-16.904c0.646,-2.808 0.829,-3.613 0.796,-6.306c-5.944,-3.483 -10.31,-4.2 -14.928,-5.113c-5.413,-1.066 -17.467,-1.897 -26.303,-0.584Z" style="fill:url(#_Radial4);fill-rule:nonzero;"/></g><g id="svga-group-eyesiriswrapper-right"><g id="svga-group-eyesiriscontrol-right"><g id="svga-group-eyesiris-right"><path id="SvgjsPath3843" d="M380.963,563.143c-0,8.456 -6.845,15.3 -15.3,15.3c-8.456,-0 -15.3,-6.844 -15.3,-15.3c-0,-8.456 6.844,-15.3 15.3,-15.3c8.455,-0 15.3,6.844 15.3,15.3Z" style="fill:#4e60a3;fill-rule:nonzero;"/><path id="SvgjsPath3844" d="M356.758,570.301c2.242,-0.194 0.268,-0.778 0.268,-0.778c-1.107,-0.597 -3.198,-1.51 -3.198,-2.361c0,-2.629 3.616,-3.302 -0.059,-4.348c-3.855,-3.511 2.958,-3.437 2.9,-3.557c-2.481,-6.067 0.778,-2.734 2.152,-4.526c5.049,-6.62 1.405,0.688 4.154,-0c0.987,-0.24 -2.002,-3.899 0.089,-3.392c1.375,0.344 1.673,1.479 1.673,1.479c1.015,-0.194 2.57,-1.734 2.57,-1.734c1.913,0.569 3.257,3.287 2.66,2.78c0.956,-0.12 2.272,-0.569 3.287,-0.867c0,-0 0.179,-0.612 0.36,-0.09c2.33,6.783 8.366,6.306 1.435,8.262c0,0 -0.449,0 0.956,1.12c6.903,5.528 -5.349,3.809 1.166,6.349c0.268,-0.255 -3.914,2.466 -3.914,3.229c-0,1.269 -2.66,4.63 -4.96,3.302c-1.285,-0.732 -1.494,1.54 -2.242,0.492c-1.463,-2.048 -4.452,-0.089 -3.348,-1.971c1.614,-1.329 -1.673,0.523 -2.3,0.523c-2.121,-0 2.749,-7.097 9.922,-1.824c2.091,1.525 -2.211,-3.662 1.614,-3.662c0.36,0.12 0.268,-1.328 0.268,-1.734c-2.002,-0.387 3.527,-0.015 3.527,-3.228c0.359,0.074 1.316,-0.882 -4.154,0c-0,0 -0.179,-1.912 -0.089,-2.257c0.267,-1.119 3.077,-0.762 2.3,-1.912l-2.033,-4.093c-6.574,-1.045 -2.81,-1.703 -6.933,-0.867c-0.179,0.972 -8.785,5.064 -8.517,6.962c0.268,1.792 5.408,2.392 0.538,5.559c7.288,13.976 -5.381,-0.309 -0.092,3.144Z" style="fill:#6777b2;fill-rule:nonzero;"/><path id="SvgjsPath3845" d="M365.663,549.755l0.448,11.208l4.662,-10.19l-3.884,10.519l8.247,-7.62l-7.619,8.234l10.518,-3.883l-10.19,4.692l11.208,0.433l-11.208,0.434l10.19,4.692l-10.518,-3.884l7.619,8.234l-8.247,-7.62l3.884,10.519l-4.662,-10.19l-0.448,11.197l-0.449,-11.207l-4.692,10.19l3.884,-10.519l-8.219,7.62l7.619,-8.234l-10.518,3.883l10.189,-4.692l-11.207,-0.433l11.207,-0.434l-10.189,-4.692l10.518,3.884l-7.619,-8.234l8.219,7.619l-3.884,-10.518l4.692,10.19l0.449,-11.198Z" style="fill:#253984;fill-rule:nonzero;"/><path id="SvgjsPath3846" d="M367.695,553.116l-1.374,8.456l5.049,-6.918l-4.514,7.29l7.321,-4.467l-6.933,5.021l8.455,-1.316l-8.338,1.958l8.338,2.033l-8.455,-1.375l6.903,5.049l-7.291,-4.498l4.452,7.321l-4.99,-6.949l1.316,8.456l-1.971,-8.331l-2.033,8.324l1.375,-8.456l-5.049,6.918l4.513,-7.291l-7.321,4.468l6.934,-5.021l-8.456,1.316l8.338,-1.958l-8.338,-2.033l8.456,1.375l-6.903,-5.049l7.29,4.498l-4.452,-7.321l4.99,6.949l-1.315,-8.456l1.971,8.338l2.032,-8.331Z" style="fill:#152975;fill-rule:nonzero;"/><path id="SvgjsPath3847" d="M371.4,563.143c0,3.167 -2.57,5.737 -5.737,5.737c-3.167,0 -5.738,-2.57 -5.738,-5.737c0,-3.167 2.571,-5.738 5.738,-5.738c3.167,0 5.737,2.571 5.737,5.738Z" style="fill-opacity:0.9;fill-rule:nonzero;"/><path id="SvgjsPath3848" d="M359.627,574.141c-0.837,0.837 -2.509,0.553 -3.705,-0.673c-1.224,-1.211 -1.525,-2.869 -0.658,-3.721c0.836,-0.836 2.509,-0.538 3.705,0.674c1.224,1.208 1.525,2.868 0.658,3.72Z" style="fill:#fff;fill-opacity:0.7;fill-rule:nonzero;"/><path id="SvgjsPath3849" d="M377.915,560.124c-1.254,1.27 -4.332,0.268 -6.844,-2.257c-2.509,-2.509 -3.526,-5.574 -2.241,-6.829c1.254,-1.27 4.304,-0.268 6.813,2.257c2.54,2.512 3.527,5.574 2.272,6.829Z" style="fill:#fff;fill-opacity:0.9;fill-rule:nonzero;"/></g></g></g><g id="svga-group-eyesfront-right"><path id="SvgjsPath3742" d="M364.253,505.202c-26.038,0.908 -53.186,17.773 -52.747,60.529c0.393,38.25 30.801,57.617 56.839,56.707c26.036,-0.908 41.277,-44.174 45.097,-60.356c10.276,-43.531 -23.154,-57.788 -49.189,-56.88Zm8.165,72.527c-12.33,1.578 -24.029,-0.666 -36.195,-2.219c-3.414,-1.575 -6.146,-3.646 -5.493,-6.216c0.016,-0.069 0.051,-0.136 0.064,-0.204c0.015,-0.011 0.036,-0.008 0.046,-0.021c7.25,-11.352 15.779,-18.515 27.471,-20.247c8.836,-1.316 20.897,-0.227 26.311,0.839c4.618,0.91 9.751,1.77 14.92,4.858c0.036,2.69 -0.15,3.498 -0.796,6.306c-1.196,2.856 -1.642,13.739 -26.328,16.904Z" style="fill:#f0c7b1;fill-rule:nonzero;"/><path id="SvgjsPath3743" d="M401.243,553.542c-3.417,-17.467 -25.317,-28.715 -48.924,-25.148c-23.606,3.578 -39.956,20.632 -36.537,38.097c3.415,17.465 25.322,28.713 48.924,25.141c23.608,-3.583 39.954,-20.627 36.537,-38.09Zm-2.494,7.283c-1.199,2.859 -1.645,13.739 -26.329,16.904c-12.329,1.578 -24.028,-0.666 -36.194,-2.219c-3.415,-1.575 -6.146,-3.646 -5.493,-6.216c0.015,-0.069 0.051,-0.136 0.064,-0.204c0.015,-0.011 0.035,-0.008 0.045,-0.021c7.25,-11.352 15.78,-18.515 27.472,-20.247c8.835,-1.316 20.897,-0.227 26.31,0.839c4.619,0.91 9.504,1.948 14.921,4.858c0.033,2.69 -0.151,3.498 -0.796,6.306Z" style="fill:url(#_Radial5);fill-rule:nonzero;"/><path id="SvgjsPath3748" d="M398.749,560.825c0.645,-2.808 0.829,-3.613 0.796,-6.306c-5.335,-2.996 -10.302,-3.945 -14.921,-4.858c-5.413,-1.066 -17.477,-2.155 -26.31,-0.839c-11.695,1.732 -20.224,8.895 -27.472,20.247c-0.01,0.013 -0.03,0.01 -0.045,0.021c-0.016,0.068 -0.051,0.135 -0.064,0.204c-0.653,2.567 2.078,4.638 5.493,6.216c12.166,1.553 23.865,3.797 36.194,2.219c24.684,-3.165 25.13,-14.048 26.329,-16.904Z" style="fill:url(#_Radial6);fill-rule:nonzero;"/><path id="SvgjsPath3752" d="M359.346,542.103c-8.402,1.374 -16.59,5.238 -24.174,10.06c-1.624,1.03 -3.485,2.205 -6.428,3.7c2.111,-0.48 4.065,-1.574 5.888,-2.578c-1.877,1.78 -3.626,3.899 -5.054,5.951c6.428,-8.055 18.607,-14.121 28.965,-16.19c9.95,-1.986 28.022,-0.673 41.443,5.208c-12.289,-6.913 -30.213,-7.854 -40.64,-6.151Z" style="fill:#c27b55;fill-rule:nonzero;"/><path id="SvgjsPath3753" d="M384.951,546.731c4.263,1.033 13.053,4.491 15.285,7.467c0.522,2.886 -2.79,0.132 -3.576,-0.299c-9.598,-5.263 -26.012,-6.497 -38.334,-4.699c-11.699,1.695 -20.236,8.687 -27.491,19.754c-2.739,4.019 6.319,-33.81 54.116,-22.223Zm-12.544,30.618c-12.352,1.556 -24.069,-0.637 -36.258,-2.139c-2.892,-0.35 20.497,5.648 37.314,4.113c23.674,-2.165 27.696,-13.872 25.87,-19.133c-2.099,0.464 1.076,13.64 -26.926,17.159Z" style="fill-rule:nonzero;"/></g></g><g id="svga-group-facehighlight-single"><path id="SvgjsPath2885" d="M404.55,639.579c0.089,57.686 -46.644,104.535 -104.392,104.614c-57.737,0.094 -104.621,-46.596 -104.71,-104.295c-0.09,-57.681 46.644,-104.713 104.389,-104.805c57.74,-0.089 104.629,46.792 104.713,104.486Z" style="fill:url(#_Radial7);fill-rule:nonzero;"/><path id="SvgjsPath2889" d="M395.625,486.643c0,52.813 -42.812,95.625 -95.622,95.625c-52.813,-0 -95.628,-42.812 -95.628,-95.625c0,-52.813 42.815,-95.625 95.628,-95.625c52.81,0 95.622,42.812 95.622,95.625Z" style="fill:url(#_Radial8);fill-rule:nonzero;"/></g><g id="svga-group-eyebrows-left"><path id="SvgjsPath2910" d="M182.7,538.128c25.383,-25.434 42.741,-15.084 78.002,-8.324c2.155,0.413 16.116,3.925 13.541,8.846c-1.232,2.356 -5.192,2.076 -7.403,2.035c-34.904,-0.653 -51.877,-25.487 -84.14,-2.557Z" style="fill:#2a232b;fill-rule:nonzero;"/></g><g id="svga-group-eyebrows-right"><path id="SvgjsPath2911" d="M417.3,538.128c-25.38,-25.434 -42.74,-15.084 -78.002,-8.324c-2.157,0.413 -16.116,3.925 -13.543,8.846c1.232,2.356 5.192,2.076 7.403,2.035c34.904,-0.653 51.88,-25.487 84.142,-2.557Z" style="fill:#2a232b;fill-rule:nonzero;"/></g><g id="svga-group-nose-single"><path id="SvgjsPath3075" d="M291.919,574.682c0,-0 -3.567,28.348 -5.166,33.866c-3.516,12.118 -15.728,29.114 -13.359,36.794c4.74,15.356 19.219,11.457 26.836,11.401c7.045,-0.056 20.583,3.958 23.363,-6.043c0.897,-3.229 -1.125,-11.389 -1.125,-11.389c0,0 -6.742,7.936 -22.631,7.056c-4.534,-0.252 -11.911,-5.345 -11.995,-12.525c-0.11,-9.734 4.595,-17.94 5.623,-27.601c0.775,-7.339 -1.546,-31.559 -1.546,-31.559Z" style="fill:#e1ac8f;fill-rule:nonzero;"/></g><g id="svga-group-beardwrap"></g><g id="svga-group-hair-front"><path id="SvgjsPath3902" d="M159.684,590.928c-6.179,-22.478 -9.506,-42.159 -14.127,-62.692l0.212,-0.048c-1.75,-4.307 -8.063,-38.403 -8.122,-38.771c-6.439,-45.313 12.732,-47.899 12.342,-66.804c8.071,4.041 15.917,2.037 22.998,-3.481c-7.441,-3.823 -5.092,-4.427 -14.973,-10.442c6.964,-1.204 11.031,0.42 16.947,1.157c-5.057,-5.056 -14.981,-15.371 -21.43,-14.004l-0.421,-0.903c9.336,-7.285 21.798,7.882 33.033,3.774c0.339,-41.751 61.371,-50.421 76.224,-56.625c19.776,-7.525 40.433,-24.075 54.96,-25.554c-8.223,8.265 -13.26,21.545 -13.634,31.513c11.98,-11.439 12.826,-11.105 30.985,-31.273c-0,16.228 -4.496,18.266 -10.33,27.79c15.838,-10.379 35.585,-39.497 65.996,-43.949l0.334,0.943c-10.96,6.457 -19.441,17.35 -25.24,32.405c5.756,-6.951 13.9,-14.491 22.915,-15.855l0.339,0.94c-5.649,3.379 -16.713,14.643 -19.245,33.502c11.171,-12.477 28.942,-22.817 41.142,-26.724l0.476,0.883c-11.199,9.111 -15.69,25.061 -18.222,38.622c7.854,-11.679 12.424,-14.341 22.305,-19.247c-3.18,4.755 -2.973,3.924 -5.503,9.093c6.11,15.614 26.298,16.22 29.748,43.5c4.157,-3.631 5.807,-4.541 10.585,-7.884l0.719,0.693c-3.59,5.577 -6.55,15.453 -8.522,22.063c7.089,-5.414 18.037,-9.402 25.745,-12.184l0.538,0.836c-6.505,6.613 -14.402,16.693 -15.713,27.627c2.55,-1.51 2.673,-1.336 5.993,-3.738c-0,7.856 0.267,6.854 0.323,10.468c3.206,-2.869 3.698,-3.27 5.804,-5.562c-0.466,82.523 -4.704,66.076 -16.108,123.588c-1.999,10.106 -5.536,27.752 -7.806,36.228l-15.425,2.649c4.769,-57.104 -0.237,-44.655 3.231,-80.59c5.131,-52.986 -37.75,-96.42 -94.413,-82.204c-11.465,2.876 -57.222,2.874 -68.682,0c-62.595,-15.716 -85.147,20.859 -91.866,84.859c-3.292,31.411 -4.098,20.81 0.681,77.935l-14.793,-2.534Z" style="fill:#2a232b;fill-rule:nonzero;"/><path id="SvgjsPath3903" d="M459.059,436.561c-0.054,-3.616 -0.324,-2.611 -0.324,-10.468c-3.32,2.4 -3.442,2.229 -5.992,3.739c1.31,-10.935 9.208,-21.015 15.713,-27.627l-0.538,-0.836c-7.706,2.784 -18.654,6.77 -25.745,12.183c1.968,-6.609 4.932,-16.485 8.522,-22.062l-0.719,-0.694c-4.779,3.343 -6.429,4.254 -10.585,7.885c-3.45,-27.277 -23.639,-27.887 -29.748,-43.501c2.529,-5.168 2.323,-4.337 5.502,-9.093c-9.881,4.906 -14.45,7.569 -22.304,19.248c2.532,-13.561 7.025,-29.512 18.222,-38.623l-0.477,-0.882c-12.199,3.907 -29.97,14.247 -41.142,26.724c2.532,-18.86 13.597,-30.123 19.245,-33.502l-0.339,-0.941c-9.014,1.364 -17.159,8.907 -22.914,15.856c5.798,-15.055 14.282,-25.949 25.24,-32.405l-0.334,-0.944c-30.412,4.452 -50.159,33.571 -65.997,43.949c5.834,-9.524 10.33,-11.564 10.33,-27.79c-18.158,20.168 -19.005,19.834 -30.985,31.274c0.372,-9.968 5.411,-23.251 13.635,-31.513c-14.525,1.479 -35.182,18.026 -54.96,25.553c-14.851,6.202 -75.883,14.872 -76.222,56.626c-11.235,4.108 -23.697,-11.06 -33.033,-3.774l0.421,0.902c6.449,-1.369 16.373,8.946 21.43,14.005c-5.913,-0.737 -9.983,-2.361 -16.947,-1.158c9.881,6.016 7.532,6.62 14.973,10.442c-7.081,5.519 -14.927,7.523 -22.998,3.481c0.39,18.908 -18.783,21.494 -12.342,66.805c0.059,0.367 6.372,34.463 8.122,38.77l-0.212,0.049c4.621,20.532 7.948,40.216 14.127,62.691l0.066,0.008c-1.685,-41.927 -28.101,-101.531 -12.599,-139.709c2.022,-4.986 9.845,-18.133 9.845,-18.133c0,-0 24.549,-3.224 25.704,-12.75c0,-0 -5.1,-2.55 -7.65,-5.1c5.1,2.55 5.1,-5.1 10.2,-2.55c0,-5.1 -7.65,-2.55 -7.65,-7.65c5.1,-0 10.2,-0 15.3,5.1c-2.55,-12.75 0,-25.5 10.2,-33.15c25.5,-20.4 58.65,-17.85 84.15,-38.25c-2.55,12.75 -5.1,25.5 -5.1,38.25c15.3,-7.65 20.4,-22.95 33.15,-33.15c2.55,10.2 -2.55,22.95 -2.55,33.15c7.65,-17.85 17.85,-35.7 40.8,-40.8c-10.2,10.2 -10.2,25.5 -10.2,38.25c0,-10.2 10.2,-15.3 12.75,-22.95l0,30.6c5.1,-15.3 15.3,-22.95 28.05,-28.05c-10.2,10.2 -7.65,20.4 -10.2,33.15c7.65,-7.65 17.85,-10.2 25.5,-17.85c7.65,15.3 2.55,28.05 2.55,43.35c2.55,-12.75 15.3,-20.4 22.95,-30.6c2.55,12.75 2.55,25.5 0,38.25c2.55,-7.65 7.65,-12.75 10.2,-20.4c0,12.393 -1.703,23.108 -5.049,33.512c3.2,-3.703 8.425,-5.383 10.149,-10.562l0,30.668c1.479,-3.039 5.84,-4.1 7.65,-7.718c-2.178,8.703 -0.648,15.562 -0.15,23.72c0.946,-4.998 5.758,-8.063 7.497,-12.666c0.102,-1.984 0.206,-3.97 0.301,-5.954c0.584,2.325 0.344,4.243 -0.301,5.954c-2.326,45.316 -6.612,90.566 -15.953,134.201l1.652,-0.283c2.27,-8.476 5.804,-26.122 7.806,-36.228c11.406,-57.512 15.644,-41.065 16.108,-123.588c-2.104,2.293 -2.596,2.693 -5.801,5.559Z" style="fill:#3a353a;fill-rule:nonzero;"/><path id="SvgjsPath3904" d="M472.837,399.168c-12.62,2.127 -21.436,6.217 -28.178,10.837c0.982,-2.562 5.592,-17.008 10.557,-23.077c-7.624,3.399 -12.036,7.046 -14.586,8.95c0,-2.631 -1.015,-5.671 -1.504,-7.242c-0.482,-1.313 -0.888,-2.848 -3.241,-6.681c-13.187,-18.604 -14.01,-10.822 -24.809,-25.066c1.968,-4.618 4.817,-9.109 8.389,-12.827c-9.965,1.416 -15.211,5.292 -21.522,11.501c-0.102,0.102 -0.178,0.204 -0.255,0.306c3.955,-15.621 11.705,-29.164 26.928,-34.247c-18.829,-0.683 -42.139,13.24 -53.856,27.132c5.059,-16.271 11.847,-24.023 21.933,-31.237c-7.258,-1.074 -14.37,1.892 -19.995,6.579c6.48,-11.212 16.108,-20.143 23.845,-24.302c-1.099,-0.025 -2.397,-0.102 -3.825,0c-1.981,-0.507 -13.971,1.444 -18.258,3.29c-21.239,8.293 -36.692,27.596 -43.324,33.864c4.886,-7.9 5.125,-13.51 4.233,-21.726c-1.671,1.436 -29.619,28.19 -29.963,28.534c1.982,-10.988 5.725,-17.689 12.801,-27.514c-12.615,-2.361 -44.196,18.403 -63.775,23.944c-20.512,5.557 -71.41,17.144 -69.08,57.885c-10.952,2.089 -26.989,-15.496 -35.394,-0.739c6.748,-4.004 15.685,5.635 21.905,11.143c-2.55,-0.415 -11.075,-2.417 -15.198,0.332c4.83,1.874 9.052,7.476 15.019,10.455c0.077,0.025 0.153,0.051 0.23,0.102c-5.455,2.876 -11.901,5.187 -17.825,3.544c-0.892,-0.255 -1.479,-0.408 -1.479,-0.433c-0.688,-0.306 -1.428,-0.612 -2.218,-0.969l-0.026,-0l-0.025,-0.026c-0.332,-0.178 -0.663,-0.357 -1.02,-0.535c1.772,14.3 -19.934,25.895 -17.544,56.151c0.982,18.617 12.62,75.245 27.249,113.643l1.232,0.367c-6.1,-21.996 -9.632,-42.687 -14.201,-62.987c-0.398,-0 -7.836,-38.362 -7.905,-38.786c-6.39,-44.959 12.735,-48.22 12.367,-65.892c7.959,3.981 16.657,1.112 23.409,-4.411c-7.951,-3.955 -6.255,-5.07 -14.484,-10.073c5.516,-0.953 12.248,1.232 16.881,1.53c-5.982,-5.982 -16.062,-16.6 -22.899,-15.147c9.099,-7.101 21.668,8.341 33.227,3.723c-0,-41.776 60.493,-50.069 75.913,-56.508c18.541,-7.053 41.522,-24.163 53.395,-25.372c-6.222,6.268 -12.801,20.147 -12.801,32.079c12.326,-11.827 13.54,-11.768 31.008,-31.161c-0,15.336 -5.73,18.074 -11.299,27.973c16.355,-9.43 36.156,-40.361 67.549,-44.956c-13.143,7.744 -21.509,21.229 -26.545,35.623c5.997,-7.8 14.79,-16.651 24.556,-18.13c-5.123,3.065 -17.495,14.744 -19.686,35.521c11.08,-13.04 29.544,-23.832 41.999,-27.82c-11.743,9.557 -16.239,26.446 -18.845,41.361c4.302,-6.561 8.56,-12.487 15.224,-16.677c0.028,-0.026 0.076,-0.051 0.102,-0.051c2.624,-1.783 1.938,-1.298 6.428,-3.545c-1.706,2.55 -1.864,2.219 -4.564,7.752c6.186,16.262 26.833,16.354 29.909,44.549c4.735,-4.2 6.224,-4.957 11.271,-8.492c-3.933,6.105 -7.1,17.259 -9.053,23.766c7.408,-6.336 21.111,-11.041 26.877,-13.132c-7.65,7.777 -15.078,18.095 -15.963,28.968c1.566,-1.053 3.555,-1.887 6.095,-3.723c-0,6.946 0.331,6.018 0.331,10.608c1.341,-1.227 4.386,-3.851 5.791,-5.381c-0.5,80.876 -4.794,65.188 -16.093,122.171c-4.228,21.359 -6.459,31.237 -7.857,36.421l1.092,-0.221c9.139,-27.416 27.379,-89.358 26.556,-121.421c-0.085,-11.985 -2.701,-36.975 -2.831,-39.525c-0.053,0.046 -5.314,5.023 -5.38,5.023c-0,-1.303 -0.536,-6.846 -0.536,-9.868c-0.9,0.691 -2.792,1.984 -5.329,3.468c3.516,-10.616 8.868,-17.213 18.87,-29.195Z" style="fill-rule:nonzero;"/></g></g></g><g id="SvgjsText1037"></g></g><defs><radialGradient id="_Radial1" cx="0" cy="0" r="1" gradientUnits="userSpaceOnUse" gradientTransform="matrix(-37.1527,1.42921,2.1455,31.1081,232.449,563.826)"><stop offset="0" style="stop-color:#fff;stop-opacity:1"/><stop offset="0.54" style="stop-color:#fdfefe;stop-opacity:1"/><stop offset="0.74" style="stop-color:#f6f8f9;stop-opacity:1"/><stop offset="0.88" style="stop-color:#eaeff2;stop-opacity:1"/><stop offset="0.99" style="stop-color:#d9e3e8;stop-opacity:1"/><stop offset="1" style="stop-color:#d8e2e7;stop-opacity:1"/></radialGradient><radialGradient id="_Radial2" cx="0" cy="0" r="1" gradientUnits="userSpaceOnUse" gradientTransform="matrix(42.9429,5.93919,5.8045,-31.9508,240.72,558.74)"><stop offset="0" style="stop-color:#e1ac8f;stop-opacity:1"/><stop offset="0.7" style="stop-color:#e1ac8f;stop-opacity:0.3"/><stop offset="1" style="stop-color:#f0c7b1;stop-opacity:0"/></radialGradient><radialGradient id="_Radial3" cx="0" cy="0" r="1" gradientUnits="userSpaceOnUse" gradientTransform="matrix(48.0574,-4.01426,5.37242,41.0993,228.671,589.583)"><stop offset="0" style="stop-color:#000;stop-opacity:0"/><stop offset="0.95" style="stop-color:#000;stop-opacity:0"/><stop offset="1" style="stop-color:#000;stop-opacity:0.2"/></radialGradient><radialGradient id="_Radial4" cx="0" cy="0" r="1" gradientUnits="userSpaceOnUse" gradientTransform="matrix(37.1499,1.4291,-2.14534,31.1058,366.533,563.827)"><stop offset="0" style="stop-color:#fff;stop-opacity:1"/><stop offset="0.54" style="stop-color:#fdfefe;stop-opacity:1"/><stop offset="0.74" style="stop-color:#f6f8f9;stop-opacity:1"/><stop offset="0.88" style="stop-color:#eaeff2;stop-opacity:1"/><stop offset="0.99" style="stop-color:#d9e3e8;stop-opacity:1"/><stop offset="1" style="stop-color:#d8e2e7;stop-opacity:1"/></radialGradient><radialGradient id="_Radial5" cx="0" cy="0" r="1" gradientUnits="userSpaceOnUse" gradientTransform="matrix(-42.9404,5.93884,-5.80416,-31.949,358.26,558.741)"><stop offset="0" style="stop-color:#e1ac8f;stop-opacity:1"/><stop offset="0.7" style="stop-color:#e1ac8f;stop-opacity:0.3"/><stop offset="1" style="stop-color:#f0c7b1;stop-opacity:0"/></radialGradient><radialGradient id="_Radial6" cx="0" cy="0" r="1" gradientUnits="userSpaceOnUse" gradientTransform="matrix(-48.0574,-4.01426,-5.37242,41.0993,370.311,589.584)"><stop offset="0" style="stop-color:#000;stop-opacity:0"/><stop offset="0.95" style="stop-color:#000;stop-opacity:0"/><stop offset="1" style="stop-color:#000;stop-opacity:0.2"/></radialGradient><radialGradient id="_Radial7" cx="0" cy="0" r="1" gradientUnits="userSpaceOnUse" gradientTransform="matrix(104.55,0,0,104.55,300,639.645)"><stop offset="0" style="stop-color:#ffe4d6;stop-opacity:0.5"/><stop offset="0.9" style="stop-color:#f0c7b1;stop-opacity:0"/><stop offset="1" style="stop-color:#f0c7b1;stop-opacity:0"/></radialGradient><radialGradient id="_Radial8" cx="0" cy="0" r="1" gradientUnits="userSpaceOnUse" gradientTransform="matrix(94.3499,0,0,94.3499,300,486.646)"><stop offset="0" style="stop-color:#ffe4d6;stop-opacity:0.5"/><stop offset="0.9" style="stop-color:#f0c7b1;stop-opacity:0"/><stop offset="1" style="stop-color:#f0c7b1;stop-opacity:0"/></radialGradient></defs></svg>